<?xml version="1.0" encoding="UTF-8"?>
<svg width="129px" height="34px" viewBox="0 0 129 34" version="1.1" xmlns="http://www.w3.org/2000/svg" xmlns:xlink="http://www.w3.org/1999/xlink">
    <!-- Generator: Sketch 47.1 (45422) - http://www.bohemiancoding.com/sketch -->
    <title>logo</title>
    <desc>Created with Sketch.</desc>
    <defs></defs>
    <g id="登录注册" stroke="none" stroke-width="1" fill="none" fill-rule="evenodd">
        <g id="邮箱注册" transform="translate(-30.000000, -23.000000)" fill="#C7CCE6">
            <g id="导航">
                <g id="Group-20">
                    <g transform="translate(30.000000, 23.000000)">
                        <g id="logo">
                            <g id="Group" transform="translate(0.853798, 0.236786)">
                                <path d="M7.82736396,0.37169969 C7.82736396,0.37169969 7.82736396,0.37169969 7.82736396,0.37169969 C7.82736396,0.495599587 8.14554948,2.72579773 7.25463001,5.38964551 C7.06371869,6.07109494 6.74553316,6.75254437 6.36371053,7.49594375 C5.85461369,8.42519298 5.21824264,9.3544422 4.45459737,10.1597915 C4.07277474,10.5934412 3.50004079,11.0270908 3.11821816,11.3987905 C0.254548421,13.9387384 0.0636371053,16.7264861 0.0636371053,17.9035351 C0.0636371053,19.204484 0.445459737,22.1161316 3.24549237,24.4082797 C3.30912948,24.4702296 3.43640369,24.4082797 3.43640369,24.3463297 C3.5636779,23.6029303 4.26368606,20.8151827 6.30007343,17.7796352 C6.87280738,16.850386 7.63645264,15.9830867 8.46373501,15.1157874 C9.29101738,14.2484881 10.1819369,13.5670387 10.9455821,12.5758395 C12.9183324,10.2836914 12.6001469,8.73494272 12.2183242,6.93839422 C11.6455903,4.15064654 10.0546626,2.35409804 9.67284001,1.85849845 C9.67284001,1.85849845 9.67284001,1.85849845 9.67284001,1.85849845 L8.90919475,1.05314912 C8.90919475,1.05314912 8.90919475,1.05314912 8.90919475,1.05314912 L8.4000979,0.557549535 C8.4000979,0.557549535 8.4000979,0.557549535 8.4000979,0.557549535 L8.01827527,0.185849845 C7.95463817,0.123899897 7.82736396,0.185849845 7.82736396,0.247799794 L7.82736396,0.37169969 Z" id="Shape" fill-rule="nonzero"></path>
                                <path d="M5.85461369,25.7711785 C7.63645264,26.2667781 9.5455658,26.452628 11.3274047,25.8950784 C13.2365179,25.2755789 15.3365424,23.97463 16.5456474,21.7444319 C17.1820184,20.5054329 17.500204,19.142534 17.500204,17.8415851 C17.500204,17.7176852 17.500204,17.5937853 17.500204,17.4698854 C17.500204,17.3459855 17.500204,17.2220856 17.500204,17.0981858 C17.500204,16.9742859 17.500204,16.850386 17.500204,16.7264861 C17.500204,16.6025862 17.500204,16.4786863 17.4365669,16.3547864 C17.4365669,16.2308865 17.4365669,16.1069866 17.3729298,15.9830867 C17.3729298,15.8591868 17.3729298,15.7352869 17.3092926,15.611387 C17.3092926,15.4874871 17.2456555,15.3635872 17.2456555,15.3016372 C17.2456555,15.1777374 17.1820184,15.1157874 17.1820184,14.9918875 C17.1820184,14.8679876 17.1183813,14.8060377 17.1183813,14.6821378 C17.1183813,14.5582379 17.0547442,14.4962879 17.0547442,14.372388 C17.0547442,14.2484881 16.9911071,14.1865382 16.9911071,14.0626383 C16.9911071,14.0006883 16.92747,13.8767884 16.92747,13.8148385 C16.92747,13.7528885 16.8638329,13.6289886 16.8638329,13.5670387 C16.8638329,13.5050887 16.8001958,13.3811888 16.8001958,13.3192389 C16.8001958,13.257289 16.7365587,13.1333891 16.7365587,13.0714391 C16.7365587,13.0094892 16.6729216,12.9475392 16.6729216,12.8236393 C16.6729216,12.7616894 16.6092845,12.6997394 16.6092845,12.6377895 C16.6092845,12.5758395 16.5456474,12.5138896 16.5456474,12.4519396 C16.5456474,12.3899897 16.4820103,12.3280397 16.4820103,12.2660898 C16.4820103,12.2041398 16.4183732,12.1421899 16.4183732,12.0802399 C16.4183732,12.01829 16.3547361,11.95634 16.3547361,11.8943901 C16.3547361,11.8324401 16.291099,11.7704902 16.291099,11.7704902 C16.291099,11.7085402 16.2274619,11.7085402 16.2274619,11.6465903 C16.2274619,11.5846403 16.1638248,11.5846403 16.1638248,11.5226904 C16.1638248,11.4607404 16.1001876,11.4607404 16.1001876,11.3987905 C16.1001876,11.3368406 16.0365505,11.3368406 16.0365505,11.2748906 C16.0365505,11.2748906 16.0365505,11.2129407 15.9729134,11.2129407 C15.9729134,11.2129407 15.9092763,11.2129407 15.9092763,11.2129407 C15.8456392,11.2129407 15.8456392,11.2748906 15.7820021,11.2748906 C15.6547279,11.5846403 15.3365424,12.3280397 15.2092682,12.6377895 C14.1274374,15.0538375 12.4092355,16.850386 10.5001224,18.7088844 C9.67284001,19.5142337 8.84555764,20.443483 8.20918659,21.4346821 C7.89100106,21.9302817 7.70008974,22.4878313 7.50917843,23.0453808 C7.38190422,23.5409804 7.44554132,24.03658 7.25463001,24.5321796 C7.1909929,24.7180294 7.1273558,24.8419293 7.00008159,24.9658292 C6.74553316,25.213629 6.42734764,25.3375289 6.10916211,25.3375289" id="Shape" fill-rule="nonzero"></path>
                            </g>
                            <g id="Group" transform="translate(24.908624, 5.564482)">
                                <path d="M13.2410432,8.00930233 L13.8429088,1.26976744 C13.8429088,1.0744186 13.9933752,0.976744186 14.1939971,0.976744186 L16.9023923,0.976744186 C17.1030142,0.976744186 17.2033251,1.12325581 17.2033251,1.26976744 L15.6485056,18.5093023 C15.6485056,18.7046512 15.4980392,18.8023256 15.2974173,18.8023256 L12.5890221,18.8023256 C12.3884003,18.8023256 12.2880893,18.655814 12.2880893,18.5093023 L12.9401104,11.2813953 C12.9401104,11.0860465 12.8397995,10.9883721 12.6391776,10.9883721 L5.01554667,10.9883721 C4.8149248,10.9883721 4.6644584,11.1348837 4.6644584,11.2813953 L4.01243734,18.5093023 C4.01243734,18.7046512 3.86197094,18.8023256 3.66134907,18.8023256 L0.902798401,18.8023256 C0.702176534,18.8023256 0.601865601,18.655814 0.601865601,18.5093023 L2.15668507,1.26976744 C2.15668507,1.0744186 2.30715147,0.976744186 2.50777334,0.976744186 L5.26632401,0.976744186 C5.46694587,0.976744186 5.56725681,1.12325581 5.56725681,1.26976744 L4.96539121,8.00930233 C4.96539121,8.20465116 5.06570214,8.30232558 5.26632401,8.30232558 L12.8899549,8.30232558 C13.0905768,8.35116279 13.2410432,8.20465116 13.2410432,8.00930233 Z" id="Shape" fill-rule="nonzero"></path>
                                <path d="M15.2974173,18.9488372 L12.5890221,18.9488372 C12.4887112,18.9488372 12.3382448,18.9 12.2880893,18.8023256 C12.1877784,18.7046512 12.1877784,18.6069767 12.1877784,18.4604651 L12.8397995,11.2325581 C12.8397995,11.1837209 12.8397995,11.1348837 12.789644,11.0860465 C12.7394885,11.0372093 12.6893331,11.0372093 12.6391776,11.0372093 L5.01554667,11.0372093 C4.91523574,11.0372093 4.8149248,11.1348837 4.76476934,11.2325581 L4.11274827,18.4604651 C4.11274827,18.7046512 3.86197094,18.9 3.6111936,18.9 L0.852642934,18.9 C0.752332001,18.9 0.601865601,18.8511628 0.551710134,18.7534884 C0.4513992,18.655814 0.4513992,18.5581395 0.4513992,18.4116279 L2.00621867,1.17209302 C2.00621867,0.927906977 2.256996,0.73255814 2.50777334,0.73255814 L5.26632401,0.73255814 C5.36663494,0.73255814 5.51710134,0.781395349 5.56725681,0.879069767 C5.66756774,0.976744186 5.66756774,1.0744186 5.66756774,1.22093023 L5.06570214,7.96046512 C5.06570214,8.00930233 5.06570214,8.05813953 5.11585761,8.10697674 C5.16601307,8.15581395 5.21616854,8.15581395 5.26632401,8.15581395 L12.8899549,8.15581395 C12.9902659,8.15581395 13.0905768,8.05813953 13.1407323,7.96046512 L13.7425979,1.22093023 C13.7425979,0.976744186 13.9933752,0.781395349 14.2441525,0.781395349 L16.9525478,0.781395349 C17.0528587,0.781395349 17.2033251,0.830232558 17.2534806,0.927906977 C17.3537915,1.0255814 17.3537915,1.12325581 17.3537915,1.26976744 L15.798972,18.5093023 C15.798972,18.7534884 15.5481947,18.9488372 15.2974173,18.9488372 Z M5.06570214,10.7930233 L12.6893331,10.7930233 C12.789644,10.7930233 12.9401104,10.8418605 12.9902659,10.9395349 C13.0905768,11.0372093 13.0905768,11.1348837 13.0905768,11.2813953 L12.4385557,18.5093023 C12.4385557,18.5581395 12.4385557,18.6069767 12.4887112,18.655814 C12.5388667,18.7046512 12.5890221,18.7046512 12.6391776,18.7046512 L15.3475728,18.7046512 C15.4478837,18.7046512 15.5481947,18.6069767 15.5983501,18.5093023 L17.1531696,1.26976744 C17.1531696,1.22093023 17.1531696,1.17209302 17.1030142,1.12325581 C17.0528587,1.0744186 17.0027032,1.0744186 16.9525478,1.0744186 L14.2441525,1.0744186 C14.1438416,1.0744186 14.0435307,1.17209302 13.9933752,1.26976744 L13.3915096,8.00930233 C13.3915096,8.25348837 13.1407323,8.44883721 12.8899549,8.44883721 L5.26632401,8.44883721 C5.16601307,8.44883721 5.01554667,8.4 4.96539121,8.30232558 C4.86508027,8.20465116 4.86508027,8.10697674 4.86508027,8.00930233 L5.46694587,1.26976744 C5.46694587,1.22093023 5.46694587,1.17209302 5.41679041,1.12325581 C5.36663494,1.0744186 5.31647947,1.0744186 5.26632401,1.0744186 L2.50777334,1.0744186 C2.4074624,1.0744186 2.30715147,1.17209302 2.256996,1.26976744 L0.702176534,18.5093023 C0.702176534,18.5581395 0.702176534,18.6069767 0.752332001,18.655814 C0.802487467,18.7046512 0.852642934,18.7046512 0.902798401,18.7046512 L3.66134907,18.7046512 C3.76166,18.7046512 3.86197094,18.6069767 3.9121264,18.5093023 L4.56414747,11.2813953 C4.61430294,10.9883721 4.8149248,10.7930233 5.06570214,10.7930233 Z" id="Shape" fill-rule="nonzero"></path>
                                <path d="M22.3191827,6.15348837 C22.5198046,6.15348837 22.6201155,6.3 22.6201155,6.44651163 L22.0182499,12.9906977 C21.817628,15.4325581 22.56996,16.6534884 24.3254014,16.6534884 C26.0808427,16.6534884 27.083952,15.4325581 27.2845739,12.9906977 L27.8864395,6.44651163 C27.8864395,6.25116279 28.0369059,6.15348837 28.2375278,6.15348837 L30.7954566,6.15348837 C30.9960784,6.15348837 31.0963894,6.3 31.0963894,6.44651163 L30.4443683,13.5767442 C30.09328,17.3372093 27.9867504,19.1930233 24.1247795,19.1930233 C20.2628086,19.1930233 18.4572118,17.3372093 18.8083,13.5767442 L19.4603211,6.44651163 C19.4603211,6.25116279 19.6107875,6.15348837 19.8114094,6.15348837 L22.3191827,6.15348837 Z" id="Shape" fill-rule="nonzero"></path>
                                <path d="M24.1247795,19.3395349 C22.1687163,19.3395349 20.7142078,18.8511628 19.8114094,17.8744186 C18.908611,16.8976744 18.5575227,15.4813953 18.7079891,13.5767442 L19.3600102,6.44651163 C19.3600102,6.20232558 19.6107875,6.00697674 19.8615648,6.00697674 L22.4194936,6.00697674 C22.5198046,6.00697674 22.670271,6.05581395 22.7204264,6.15348837 C22.8207374,6.25116279 22.8207374,6.34883721 22.8207374,6.44651163 L22.2188718,12.9906977 C22.0684054,14.4069767 22.3191827,15.3837209 22.8207374,15.9697674 C23.1718256,16.3604651 23.7235358,16.555814 24.3755568,16.555814 C26.0808427,16.555814 26.9836411,15.3837209 27.2344184,12.9906977 L27.836284,6.44651163 C27.836284,6.20232558 28.0870614,6.00697674 28.3378387,6.00697674 L30.8957675,6.00697674 C30.9960784,6.00697674 31.1465448,6.05581395 31.1967003,6.15348837 C31.2970112,6.25116279 31.2970112,6.34883721 31.2970112,6.44651163 L30.6449902,13.5767442 C30.2437464,17.4348837 28.0870614,19.3395349 24.1247795,19.3395349 Z M19.8114094,6.3 C19.7110984,6.3 19.6107875,6.39767442 19.560632,6.49534884 L18.908611,13.6255814 C18.7581446,15.4813953 19.1092328,16.8488372 19.9618758,17.7767442 C20.8145187,18.7046512 22.2188718,19.144186 24.1247795,19.144186 C27.9867504,19.144186 29.9929691,17.3372093 30.3440574,13.6255814 L30.9960784,6.49534884 C30.9960784,6.44651163 30.9960784,6.39767442 30.945923,6.34883721 C30.8957675,6.3 30.845612,6.3 30.7954566,6.3 L28.2375278,6.3 C28.1372168,6.3 28.0369059,6.39767442 27.9867504,6.49534884 L27.3848848,13.0395349 C27.1341075,15.5790698 26.1309982,16.8488372 24.2752459,16.8488372 C23.5229139,16.8488372 22.9210483,16.6046512 22.5198046,16.2139535 C21.917939,15.5790698 21.7173171,14.5534884 21.8677835,13.0395349 L22.4696491,6.49534884 C22.4696491,6.44651163 22.4696491,6.39767442 22.4194936,6.34883721 C22.3693382,6.3 22.3191827,6.3 22.2690272,6.3 L19.8114094,6.3 L19.8114094,6.3 Z" id="Shape" fill-rule="nonzero"></path>
                                <path d="M45.892252,12.5023256 C45.6916302,14.5046512 44.9392982,16.1162791 43.5851006,17.3860465 C42.230903,18.655814 40.5256171,19.2906977 38.5193984,19.2906977 C36.5131798,19.2906977 34.9082048,18.655814 33.7546291,17.3860465 C32.6010534,16.1162791 32.0994987,14.5046512 32.3001206,12.5511628 C32.5007424,10.5976744 33.2530744,8.9372093 34.607272,7.71627907 C35.9614696,6.44651163 37.6667555,5.81162791 39.7231296,5.81162791 C41.7795038,5.81162791 43.3343232,6.44651163 44.487899,7.66744186 C45.5913192,8.88837209 46.0928739,10.5 45.892252,12.5023256 Z M35.459915,12.5511628 C35.359604,13.7232558 35.6103814,14.7 36.212247,15.4325581 C36.8141126,16.1651163 37.6667555,16.555814 38.7200203,16.555814 C39.7732851,16.555814 40.6760835,16.1651163 41.4284155,15.3348837 C42.130592,14.5534884 42.5318358,13.5767442 42.6321467,12.5023256 C42.7324576,11.3790698 42.4816803,10.4511628 41.8798147,9.66976744 C41.2779491,8.88837209 40.4754616,8.44883721 39.4221968,8.44883721 C38.368932,8.44883721 37.4661336,8.83953488 36.7138016,9.62093023 C36.0116251,10.3534884 35.6103814,11.3302326 35.459915,12.5511628 Z" id="Shape" fill-rule="nonzero"></path>
                                <path d="M38.5193984,19.3395349 C36.4630243,19.3395349 34.8078939,18.7046512 33.6543182,17.3860465 C32.5007424,16.1162791 31.9490323,14.455814 32.1496542,12.4534884 C32.350276,10.4511628 33.102608,8.79069767 34.5069611,7.52093023 C35.9113142,6.25116279 37.6166,5.61627907 39.6729742,5.61627907 C41.7293483,5.61627907 43.3844787,6.25116279 44.5380544,7.52093023 C45.6916302,8.79069767 46.1931848,10.4511628 46.0427184,12.4534884 C45.8420966,14.455814 45.0897646,16.1162791 43.6854115,17.3860465 C42.2810584,18.7046512 40.5757726,19.3395349 38.5193984,19.3395349 Z M39.6729742,5.86046512 C37.6667555,5.86046512 36.0116251,6.49534884 34.6574275,7.71627907 C33.3032299,8.9372093 32.5508979,10.5488372 32.4004315,12.5023256 C32.2499651,14.455814 32.7013643,16.0186047 33.85494,17.2395349 C34.9583603,18.4604651 36.5633352,19.0953488 38.5193984,19.0953488 C40.5256171,19.0953488 42.1807475,18.4604651 43.5349451,17.2395349 C44.8891427,16.0186047 45.6414747,14.4069767 45.7919411,12.4534884 L45.7919411,12.4534884 C45.9424075,10.5 45.4910083,8.88837209 44.387588,7.71627907 C43.2340123,6.49534884 41.6791928,5.86046512 39.6729742,5.86046512 Z M38.7701758,16.6534884 C37.6667555,16.6534884 36.7639571,16.2627907 36.1620915,15.4813953 C35.5100704,14.7 35.2592931,13.7232558 35.359604,12.5023256 C35.459915,11.2813953 35.9113142,10.3046512 36.6636462,9.52325581 C37.4159782,8.74186047 38.368932,8.35116279 39.4723523,8.35116279 C40.5757726,8.35116279 41.4284155,8.79069767 42.0302811,9.62093023 C42.6321467,10.4511628 42.882924,11.427907 42.7826131,12.5511628 C42.6823022,13.6744186 42.2810584,14.6511628 41.5287264,15.4813953 C40.8265499,16.2627907 39.873596,16.6534884 38.7701758,16.6534884 Z M39.4723523,8.54651163 C38.469243,8.54651163 37.5664446,8.9372093 36.864268,9.66976744 C36.1620915,10.4023256 35.7106923,11.3790698 35.6103814,12.5023256 L35.6103814,12.5023256 C35.5100704,13.6744186 35.7608478,14.6023256 36.3627134,15.3348837 C36.964579,16.0674419 37.7670664,16.4093023 38.7701758,16.4093023 C39.8234406,16.4093023 40.6760835,16.0186047 41.37826,15.2372093 C42.0804366,14.455814 42.4816803,13.527907 42.5819912,12.4534884 C42.6823022,11.3790698 42.4315248,10.4511628 41.8798147,9.66976744 C41.2779491,8.9372093 40.5256171,8.54651163 39.4723523,8.54651163 Z" id="Shape" fill-rule="nonzero"></path>
                                <path d="M49.0520464,0.634883721 L51.6099753,0.634883721 C51.8105971,0.634883721 51.9109081,0.781395349 51.9109081,0.927906977 L51.4093534,6.54418605 C51.4093534,6.8372093 51.7102862,6.93488372 51.9109081,6.78837209 C52.8638619,6.10465116 54.0675931,5.71395349 55.5722571,5.71395349 C57.277543,5.71395349 58.6317406,6.39767442 59.6348499,7.71627907 C60.6379593,9.03488372 61.0893585,10.5976744 60.8887366,12.4046512 C60.7382702,14.3581395 59.9859382,15.9697674 58.782207,17.2883721 C57.5283203,18.6069767 56.0236563,19.2418605 54.268215,19.2418605 C52.3623073,19.2418605 51.0582651,18.7046512 50.4563995,17.6302326 L50.3059331,18.5093023 C50.3059331,18.655814 50.1053113,18.8023256 49.9548449,18.8023256 L47.396916,18.8023256 C47.1962942,18.8023256 47.0959832,18.655814 47.0959832,18.5093023 L48.6508027,0.927906977 C48.7009582,0.781395349 48.8514246,0.634883721 49.0520464,0.634883721 Z M57.6286313,12.5023256 C57.7289422,11.427907 57.4781649,10.5 56.8762993,9.66976744 C56.3747446,8.98604651 55.6725681,8.59534884 54.8700806,8.49767442 C53.5660385,8.35116279 52.2118409,8.98604651 51.4093534,10.0116279 C50.8576433,10.744186 50.5567105,11.5744186 50.4563995,12.5023256 C50.3560886,13.6255814 50.6068659,14.5534884 51.258887,15.3348837 C51.8607526,16.1162791 52.7133955,16.555814 53.7165049,16.555814 C54.8199251,16.555814 55.7227235,16.1651163 56.4249001,15.3837209 C57.1270766,14.6023256 57.5283203,13.6255814 57.6286313,12.5023256 Z" id="Shape" fill-rule="nonzero"></path>
                                <path d="M54.268215,19.3395349 C52.5127737,19.3395349 51.2087315,18.8511628 50.506555,17.972093 L50.4062441,18.5581395 C50.3560886,18.8023256 50.1554667,18.9488372 49.9548449,18.9488372 L47.396916,18.9488372 C47.2966051,18.9488372 47.1461387,18.9 47.0959832,18.8023256 C46.9956723,18.7046512 46.9956723,18.6069767 46.9956723,18.4604651 L48.5504918,0.879069767 C48.5504918,0.634883721 48.8012691,0.439534884 49.0520464,0.439534884 L51.6099753,0.439534884 C51.7102862,0.439534884 51.8607526,0.488372093 51.9109081,0.586046512 C52.011219,0.68372093 52.011219,0.781395349 52.011219,0.879069767 L51.5096643,6.49534884 C51.5096643,6.59302326 51.5598198,6.64186047 51.6099753,6.64186047 C51.6601307,6.69069767 51.7604417,6.69069767 51.8607526,6.59302326 C52.8137065,5.86046512 54.0675931,5.51860465 55.6224126,5.51860465 C57.3778539,5.51860465 58.782207,6.20232558 59.7853163,7.56976744 C60.7884257,8.9372093 61.2398249,10.5 61.0893585,12.3069767 C60.8887366,14.2604651 60.1865601,15.9209302 58.9326734,17.2395349 C57.6286313,18.7046512 56.0738118,19.3395349 54.268215,19.3395349 Z M50.3560886,17.2883721 L50.5567105,17.5813953 C51.1585761,18.6069767 52.4124627,19.144186 54.268215,19.144186 C56.0236563,19.144186 57.4781649,18.5093023 58.6818961,17.2395349 C59.8856273,15.9697674 60.5878038,14.3581395 60.7884257,12.4534884 C60.9388921,10.6953488 60.5376483,9.13255814 59.534539,7.8627907 C58.5314297,6.59302326 57.2273875,5.90930233 55.5722571,5.90930233 C54.1177486,5.90930233 52.9140174,6.25116279 51.9610635,6.93488372 C51.8105971,7.03255814 51.6099753,7.08139535 51.4595089,6.98372093 C51.3090425,6.88604651 51.258887,6.73953488 51.258887,6.59302326 L51.7604417,0.976744186 C51.7604417,0.927906977 51.7604417,0.879069767 51.7102862,0.830232558 C51.6601307,0.781395349 51.6099753,0.781395349 51.5598198,0.781395349 L49.001891,0.781395349 C48.90158,0.781395349 48.8012691,0.879069767 48.7511136,0.976744186 L47.1962942,18.5581395 C47.1962942,18.6069767 47.1962942,18.655814 47.2464496,18.7046512 C47.2966051,18.7534884 47.3467606,18.7534884 47.396916,18.7534884 L49.9548449,18.7534884 C50.0551558,18.7534884 50.1554667,18.655814 50.2056222,18.5581395 L50.3560886,17.2883721 Z M53.7165049,16.6534884 C52.6632401,16.6534884 51.8105971,16.2139535 51.1585761,15.3837209 C50.506555,14.5534884 50.2557777,13.5767442 50.3560886,12.4534884 C50.4563995,11.4767442 50.7573323,10.6465116 51.3090425,9.91395349 C52.1616854,8.79069767 53.5660385,8.15581395 54.8700806,8.35116279 C55.7227235,8.44883721 56.4249001,8.88837209 56.9766102,9.57209302 C57.5784758,10.4023256 57.8794086,11.3790698 57.7790977,12.4534884 L57.7790977,12.4534884 C57.6787867,13.6255814 57.2273875,14.6023256 56.525211,15.4325581 C55.772879,16.2627907 54.8199251,16.6534884 53.7165049,16.6534884 Z M54.4688369,8.59534884 C53.3654166,8.59534884 52.2619963,9.18139535 51.5598198,10.1093023 C51.0582651,10.7930233 50.7071769,11.6232558 50.6570214,12.5511628 C50.5567105,13.6255814 50.8074878,14.5534884 51.4093534,15.3348837 C52.011219,16.1162791 52.763551,16.5069767 53.7666603,16.5069767 C54.8199251,16.5069767 55.7227235,16.1162791 56.3747446,15.3837209 C57.0769211,14.6511628 57.4781649,13.6744186 57.5784758,12.5511628 L57.5784758,12.5511628 C57.6787867,11.5255814 57.4280094,10.5976744 56.8261438,9.81627907 C56.3245891,9.18139535 55.6725681,8.79069767 54.9202361,8.69302326 C54.7196142,8.59534884 54.5691478,8.59534884 54.4688369,8.59534884 Z" id="Shape" fill-rule="nonzero"></path>
                                <path d="M65.3525731,18.8023256 L62.7946443,18.8023256 C62.5940225,18.8023256 62.4937115,18.655814 62.4937115,18.5093023 L63.5971318,6.49534884 C63.5971318,6.3 63.7475982,6.20232558 63.9482201,6.20232558 L66.5061489,6.20232558 C66.7067707,6.20232558 66.8070817,6.34883721 66.8070817,6.49534884 L65.7036614,18.5093023 C65.7036614,18.7046512 65.553195,18.8023256 65.3525731,18.8023256 Z" id="Shape" fill-rule="nonzero"></path>
                                <path d="M65.3525731,18.9488372 L62.7946443,18.9488372 C62.6943334,18.9488372 62.543867,18.9 62.4937115,18.8023256 C62.3934006,18.7046512 62.3934006,18.6069767 62.3934006,18.5093023 L63.4968209,6.49534884 C63.4968209,6.25116279 63.7475982,6.05581395 63.9983755,6.05581395 L66.5563043,6.05581395 C66.6566153,6.05581395 66.8070817,6.10465116 66.8572371,6.20232558 C66.9575481,6.3 66.9575481,6.39767442 66.9575481,6.49534884 L65.8541278,18.5093023 C65.8039723,18.7534884 65.6033505,18.9488372 65.3525731,18.9488372 Z M63.9482201,6.3 C63.8479091,6.3 63.7475982,6.39767442 63.6974427,6.49534884 L62.5940225,18.5093023 C62.5940225,18.5581395 62.5940225,18.6069767 62.6441779,18.655814 C62.6943334,18.7046512 62.7444889,18.7046512 62.7946443,18.7046512 L65.3525731,18.7046512 C65.4528841,18.7046512 65.553195,18.6069767 65.6033505,18.5093023 L66.7067707,6.49534884 C66.7067707,6.44651163 66.7067707,6.39767442 66.6566153,6.34883721 C66.6064598,6.3 66.5563043,6.3 66.5061489,6.3 L63.9482201,6.3 Z" id="Shape" fill-rule="nonzero"></path>
                                <path d="M66.6566153,4.63953488 L64.0986865,4.63953488 C63.8980646,4.63953488 63.7977537,4.49302326 63.7977537,4.34651163 L63.9983755,2.1 C63.9983755,1.90465116 64.1488419,1.80697674 64.3494638,1.80697674 L66.9073926,1.80697674 C67.1080145,1.80697674 67.2083254,1.95348837 67.2083254,2.1 L67.0077035,4.34651163 C66.9575481,4.49302326 66.8070817,4.63953488 66.6566153,4.63953488 Z" id="Shape" fill-rule="nonzero"></path>
                                <path d="M66.6566153,4.78604651 L64.0986865,4.78604651 C63.9983755,4.78604651 63.8479091,4.7372093 63.7977537,4.63953488 C63.6974427,4.54186047 63.6974427,4.44418605 63.6974427,4.34651163 L63.8980646,2.1 C63.8980646,1.85581395 64.1488419,1.66046512 64.3996193,1.66046512 L66.9575481,1.66046512 C67.057859,1.66046512 67.2083254,1.70930233 67.2584809,1.80697674 C67.3587918,1.90465116 67.3587918,2.00232558 67.3587918,2.14883721 L67.1581699,4.39534884 C67.1080145,4.59069767 66.9073926,4.78604651 66.6566153,4.78604651 Z M64.3494638,1.90465116 C64.2491529,1.90465116 64.1488419,2.00232558 64.0986865,2.1 L63.8980646,4.34651163 C63.8980646,4.39534884 63.8980646,4.44418605 63.9482201,4.49302326 C63.9983755,4.54186047 64.048531,4.54186047 64.0986865,4.54186047 L66.6566153,4.54186047 C66.7569262,4.54186047 66.8572371,4.44418605 66.9073926,4.34651163 L67.1080145,2.1 C67.1080145,2.05116279 67.1080145,2.00232558 67.057859,1.95348837 C67.0077035,1.90465116 66.9575481,1.90465116 66.9073926,1.90465116 L64.3494638,1.90465116 Z" id="Shape" fill-rule="nonzero"></path>
                            </g>
                            <g id="Group" transform="translate(94.400343, 11.780127)">
                                <polygon id="Shape" fill-rule="nonzero" points="0.958506469 7.64408493 3.89393253 7.64408493 3.53449261 10.3658424 0.599066543 10.3658424"></polygon>
                                <path d="M3.71421257,10.4816619 L0.479253235,10.4816619 L0.838693161,7.47035573 L4.07365249,7.47035573 L3.71421257,10.4816619 Z M0.778786506,10.1921132 L3.4146793,10.1921132 L3.71421257,7.7599044 L1.07831978,7.7599044 L0.778786506,10.1921132 Z" id="Shape" fill-rule="nonzero"></path>
                                <path d="M9.22562477,13.1455097 L6.9491719,13.1455097 L8.56665157,0.579097344 L10.7831978,0.579097344 L10.6633845,1.50565309 C11.442171,0.694916812 12.4006774,0.289548672 13.4190906,0.289548672 C15.8153567,0.521187609 16.8936765,2.20056991 16.6540499,5.44351503 C16.1747967,8.80227962 14.6172237,10.4816619 11.8615176,10.5395717 C10.8431044,10.5395717 10.1242246,10.250023 9.704878,9.6130159 L9.22562477,13.1455097 Z M10.2440379,5.03814689 L10.0643179,6.31216104 C9.88459796,7.87572387 10.4836645,8.62855042 11.8016109,8.62855042 C13.2992773,8.62855042 14.1379704,7.5861752 14.4375037,5.44351503 C14.6771303,3.41667433 14.0780638,2.37429911 12.6403041,2.31638937 C11.262451,2.43220884 10.4836645,3.30085486 10.2440379,5.03814689 Z" id="Shape" fill-rule="nonzero"></path>
                                <path d="M9.40534473,13.3192389 L6.82935859,13.3192389 L8.44683826,0.463277875 L10.9629177,0.463277875 L10.8431044,1.15819469 C11.6218909,0.521187609 12.4605841,0.173729203 13.4190906,0.173729203 C15.9351701,0.40536814 17.0733965,2.20056991 16.7738632,5.44351503 C16.29461,8.86018936 14.6172237,10.5974814 11.8615176,10.6553911 C10.9629177,10.6553911 10.2440379,10.4237522 9.76478466,9.90256457 L9.40534473,13.3192389 Z M7.12889186,13.0296902 L9.10581146,13.0296902 L9.58506469,9.20764776 L9.82469131,9.55510617 C10.2440379,10.1342035 10.9030111,10.4237522 11.8615176,10.4237522 C14.4974103,10.3658424 15.9950767,8.74436989 16.4743299,5.50142476 C16.7139566,2.37429911 15.7554501,0.752826547 13.4190906,0.521187609 C12.4605841,0.521187609 11.5619843,0.92655575 10.7831978,1.6793823 L10.4836645,1.96893097 L10.6633845,0.752826547 L8.74637153,0.752826547 L7.12889186,13.0296902 Z M11.8016109,8.80227962 C11.2025444,8.80227962 10.7232911,8.62855042 10.3638512,8.28109201 C9.94450462,7.87572387 9.82469131,7.18080706 9.88459796,6.31216104 L10.0643179,5.03814689 C10.3638512,3.24294512 11.2025444,2.31638937 12.6403041,2.25847964 C13.2393706,2.25847964 13.7186238,2.49011858 14.0181571,2.83757698 C14.4974103,3.35876459 14.6771303,4.28532034 14.557317,5.50142476 C14.3176904,7.70199467 13.3591839,8.80227962 11.8016109,8.80227962 Z M10.3638512,5.03814689 L10.1841312,6.31216104 C10.1242246,7.12289733 10.2440379,7.70199467 10.5435712,8.04945307 C10.7831978,8.33900175 11.2025444,8.45482122 11.7417042,8.45482122 C13.179464,8.45482122 13.9582505,7.47035573 14.1978771,5.44351503 C14.3176904,4.28532034 14.1978771,3.41667433 13.7186238,2.95339645 C13.4190906,2.66384778 13.0596506,2.49011858 12.5204908,2.49011858 C11.3822643,2.54802831 10.6034778,3.41667433 10.3638512,5.03814689 Z" id="Shape" fill-rule="nonzero"></path>
                                <path d="M24.7414482,0.984465484 L23.4834085,3.01130619 C23.1838752,2.77966725 22.884342,2.60593805 22.524902,2.60593805 C21.5663956,2.60593805 20.967329,3.41667433 20.7876091,5.09605662 L20.1286359,10.3658424 L17.9120896,10.3658424 L19.1701294,0.579097344 L21.3866756,0.579097344 L21.2668623,1.44774336 C21.8659288,0.752826547 22.524902,0.347458406 23.1239686,0.347458406 C23.8428484,0.347458406 24.3820083,0.579097344 24.7414482,0.984465484 Z" id="Shape" fill-rule="nonzero"></path>
                                <path d="M20.3083558,10.4816619 L17.7922763,10.4816619 L19.0503161,0.463277875 L21.5663956,0.463277875 L21.5064889,1.04237522 C22.0456488,0.521187609 22.5848087,0.231638937 23.1239686,0.231638937 C23.8428484,0.173729203 24.441915,0.40536814 24.8612615,0.868646015 L24.9211682,0.92655575 L23.5433151,3.18503539 L23.4235018,3.06921592 C23.1838752,2.83757698 22.884342,2.72175751 22.5848087,2.72175751 C21.6862089,2.72175751 21.2069556,3.47458406 20.967329,5.03814689 L20.3083558,10.4816619 Z M18.0918096,10.1921132 L20.0088225,10.1921132 L20.6677957,5.03814689 C20.9074224,3.30085486 21.5064889,2.43220884 22.5848087,2.43220884 C22.884342,2.43220884 23.2437819,2.54802831 23.4834085,2.72175751 L24.5617283,0.92655575 C24.2022883,0.579097344 23.7230351,0.463277875 23.1239686,0.463277875 C22.524902,0.463277875 21.9857421,0.810736281 21.3866756,1.50565309 L21.0871423,1.91102123 L21.2668623,0.694916812 L19.3498493,0.694916812 L18.0918096,10.1921132 Z" id="Shape" fill-rule="nonzero"></path>
                                <path d="M30.1330471,0.347458406 C33.0684732,0.463277875 34.3265129,2.20056991 34.0868863,5.5593345 C33.6076331,8.91809909 31.8703401,10.5974814 28.8151007,10.6553911 C25.8796747,10.5395717 24.6216349,8.86018936 24.9211682,5.7330637 C25.4603281,2.31638937 27.1976211,0.521187609 30.1330471,0.347458406 Z M29.114634,8.68646015 C30.672207,8.62855042 31.5708068,7.5861752 31.8703401,5.5593345 C32.1698734,3.41667433 31.5109002,2.31638937 30.0132338,2.25847964 C28.4556608,2.31638937 27.557061,3.41667433 27.2575277,5.5593345 C26.9579944,7.5861752 27.6169676,8.62855042 29.114634,8.68646015 Z" id="Shape" fill-rule="nonzero"></path>
                                <path d="M28.8151007,10.7712106 C27.377341,10.7133009 26.3589279,10.3079327 25.6400481,9.55510617 C24.8612615,8.68646015 24.5617283,7.412446 24.7414482,5.67515397 C25.3405148,2.20056991 27.1377144,0.40536814 30.1330471,0.231638937 L30.1330471,0.231638937 C31.5109002,0.289548672 32.5293133,0.694916812 33.2481932,1.44774336 C34.0868863,2.31638937 34.3864196,3.706223 34.2066996,5.5593345 C33.7274464,8.97600882 31.9302468,10.7133009 28.8151007,10.7712106 Z M30.1330471,0.521187609 C27.2575277,0.694916812 25.5801414,2.37429911 25.0409815,5.7330637 C24.8612615,7.35453626 25.1607948,8.57064068 25.8796747,9.38137696 C26.4787412,10.0762938 27.4971543,10.4816619 28.8151007,10.5395717 C31.8104334,10.4816619 33.4878198,8.86018936 33.967073,5.61724423 C34.146793,3.8799522 33.787353,2.54802831 33.0684732,1.73729203 C32.4095,0.92655575 31.4509935,0.579097344 30.1330471,0.521187609 Z M29.114634,8.86018936 L29.114634,8.86018936 C28.4556608,8.80227962 27.9165009,8.62855042 27.6169676,8.22318228 C27.1377144,7.70199467 26.9579944,6.83334865 27.0778078,5.61724423 C27.377341,3.41667433 28.3957542,2.25847964 30.0132338,2.20056991 C30.672207,2.20056991 31.2113669,2.43220884 31.5708068,2.83757698 C32.0500601,3.41667433 32.22978,4.34323008 32.0500601,5.67515397 C31.6906201,7.70199467 30.7321137,8.74436989 29.114634,8.86018936 L29.114634,8.86018936 Z M29.9533272,2.43220884 C28.5155675,2.49011858 27.6169676,3.5324938 27.3174344,5.61724423 C27.1976211,6.71752918 27.377341,7.52826547 27.7966876,7.99154334 C28.0962209,8.33900175 28.5155675,8.51273095 29.114634,8.57064068 C30.5523937,8.51273095 31.4509935,7.52826547 31.6906201,5.61724423 C31.8703401,4.40113981 31.6906201,3.5324938 31.2712736,3.01130619 C30.9717403,2.66384778 30.5523937,2.49011858 29.9533272,2.43220884 Z" id="Shape" fill-rule="nonzero"></path>
                            </g>
                        </g>
                    </g>
                </g>
            </g>
        </g>
    </g>
</svg>